<?xml version="1.0" encoding="utf-8"?>
<!-- Generator: Adobe Illustrator 25.0.0, SVG Export Plug-In . SVG Version: 6.00 Build 0)  -->
<svg version="1.1" id="Application" xmlns="http://www.w3.org/2000/svg" xmlns:xlink="http://www.w3.org/1999/xlink" x="0px"
	 y="0px" viewBox="0 0 1771.9 1771.9" style="enable-background:new 0 0 1771.9 1771.9;" xml:space="preserve">
<style type="text/css">
	.st0{fill:#6E6E6E;}
	.st1{fill:url(#SVGID_1_);}
	.st2{fill:url(#SVGID_2_);}
	.st3{fill:url(#SVGID_3_);}
	.st4{fill:#F7D000;}
	.st5{fill:url(#SVGID_4_);}
	.st6{fill:#F6F6F6;}
</style>
<path class="st0" d="M1707.7,416.8v1055c0,165.7-134.3,300.1-300.1,300.1H364.2c-165.7,0-300.1-134.3-300.1-300.1v-1055
	c0-165.7,247.1-423.6,404.4-382.4h834.8C1460.6-6.8,1707.7,251.1,1707.7,416.8z"/>
<linearGradient id="SVGID_1_" gradientUnits="userSpaceOnUse" x1="163.485" y1="857.5522" x2="1807.165" y2="857.5522" gradientTransform="matrix(1 0 0 -1 -99.42 1736.67)">
	<stop  offset="0" style="stop-color:#D4A51E"/>
	<stop  offset="1" style="stop-color:#7A6839"/>
</linearGradient>
<path class="st1" d="M1707.7,395v1055c0,165.7-134.3,300.1-300.1,300.1H364.2c-165.7,0-300.1-134.4-300.1-300.1V395
	c0-165.7,247.1-423.6,404.4-382.4h834.8C1460.6-28.6,1707.7,229.2,1707.7,395z"/>
<linearGradient id="SVGID_2_" gradientUnits="userSpaceOnUse" x1="1780.873" y1="613.0402" x2="2276.2329" y2="613.0402" gradientTransform="matrix(1.04 -0.63 -0.52 -0.85 -369.0726 3177.7209)">
	<stop  offset="0.1" style="stop-color:#181716;stop-opacity:0"/>
	<stop  offset="0.5" style="stop-color:#181716;stop-opacity:0.3"/>
	<stop  offset="0.85" style="stop-color:#181716;stop-opacity:0"/>
</linearGradient>
<path class="st2" d="M1707.7,1455.5c0.1,4.3,0.2,10.8,0,18.6c0,0-0.2,8.3-1.2,20.2c0,0-1.9,23.1-5.7,42.3
	c-3.4,17.3-15,61.6-47.6,107.8c-13.6,19.4-29.5,37-47.3,52.7c-10.4,9.8-85.9,78.3-197.4,65.5c-110.6-12.7-168.4-95.2-176.5-107.2
	c-54.8-165.9-109.6-331.8-164.3-497.7l473-150.3C1596.3,1156.8,1652,1306.2,1707.7,1455.5z"/>
<linearGradient id="SVGID_3_" gradientUnits="userSpaceOnUse" x1="1933.1195" y1="498.811" x2="2428.4795" y2="498.811" gradientTransform="matrix(-1.04 -0.63 0.52 -0.85 2360.6125 3177.7209)">
	<stop  offset="0.1" style="stop-color:#181716;stop-opacity:0"/>
	<stop  offset="0.5" style="stop-color:#181716;stop-opacity:0.3"/>
	<stop  offset="0.85" style="stop-color:#181716;stop-opacity:0"/>
</linearGradient>
<path class="st3" d="M64.2,1455.5c-0.1,4.3-0.2,10.8,0,18.6c0,0,0.2,8.3,1.2,20.2c0,0,1.9,23.1,5.7,42.3
	c3.4,17.3,15.1,61.6,47.6,107.8c13.6,19.4,29.5,37,47.3,52.7c10.4,9.8,85.9,78.3,197.4,65.5c110.6-12.7,168.4-95.2,176.5-107.2
	c54.8-165.9,109.6-331.8,164.4-497.7l-473.1-150.3L64.2,1455.5z"/>
<path class="st4" d="M1618.5,310.7V1158c0,167.1-136.6,302.5-305.2,302.5H458.5c-168.5,0-305.2-135.4-305.2-302.5V310.7
	c0-167.1,136.6-302.5,305.2-302.5h854.9C1481.9,8.2,1618.5,143.6,1618.5,310.7z"/>
<linearGradient id="SVGID_4_" gradientUnits="userSpaceOnUse" x1="165.505" y1="1051.6" x2="1606.3051" y2="1051.6" gradientTransform="matrix(1 0 0 -1 0 1772)">
	<stop  offset="0" style="stop-color:#FFD700"/>
	<stop  offset="1" style="stop-color:#A88600"/>
</linearGradient>
<path class="st5" d="M465.6,0h840.6c165.7,0,300.1,134.4,300.1,300.1v840.6c0,165.7-134.4,300.1-300.1,300.1H465.6
	c-165.7,0-300.1-134.4-300.1-300.1V300.1C165.5,134.4,299.9,0,465.6,0z"/>
<g>
	<path class="st6" d="M1202.2,1346.5c-23.8,0-46.8-7-68.4-20.9s-41.5-38.6-59.5-73.7c-17.7-34.4-33.6-84.5-47.3-148.9L925.5,665
		l-267.4,666.4c-1.2,3-4.2,5-7.4,5h-0.5l-170.3-11.7c-2.6-0.2-4.9-1.6-6.2-3.8l-7.3-11.7c-1.5-2.4-1.6-5.3-0.4-7.8l403-804.5
		l-32.3-93c0-0.1,0-0.1-0.1-0.2c-16.8-53.2-39.4-88.9-67.2-106.2C741.3,280,704.8,271,660.9,271c-33.9,0-64.2,4.3-89.9,12.7
		c-26,8.5-49.8,19-70.5,31.3c-1.2,0.7-2.6,1.1-4.1,1.1c-2.9,0-5.6-1.6-7-4.1l-16-29.1c-1-1.9-1.3-4.2-0.6-6.2
		c14-44.9,37-81.9,68.5-109.9c31.9-28.4,71.7-42.8,118.1-42.8c51.5,0,95,17.4,129.3,51.8c33.7,33.7,63.8,90.1,89.3,167.6l227,681
		c15.2,45.8,30.7,81.4,45.8,106c14.7,24,30.4,40.9,46.7,50.4s34.4,14.2,54.2,14.2c9.2,0,20.7-1.2,34.3-3.5
		c12.1-1.9,23.9-5.4,35.2-10.3c3.9-1.8,8.5-0.1,10.5,3.7l13.1,26.2c0.9,1.7,1.1,3.7,0.6,5.6c-10.1,38.2-28.2,69.6-54,93.3
		C1265.2,1334.3,1235.2,1346.5,1202.2,1346.5z"/>
	<path class="st6" d="M659.4,132.1c49.5,0,90.7,16.5,123.7,49.5c33,33,62.1,87.8,87.3,164.4l227,681.1c15.5,46.6,31,82.5,46.6,107.7
		c15.5,25.2,32,42.9,49.5,53.1c17.5,10.2,36.9,15.3,58.2,15.3c9.7,0,21.6-1.2,35.7-3.6s26.4-6.1,37.1-10.9l13.1,26.2
		c-9.7,36.9-26.9,66.7-51.7,89.5c-24.7,22.8-52.6,34.2-83.7,34.2c-22.3,0-43.6-6.5-64-19.6c-20.4-13.1-39.3-36.6-56.8-70.6
		c-17.5-34-33-83-46.6-147L927.5,638.4l-276.9,690l-170.3-11.6l-7.3-11.7l404.5-807.5l-33.4-96.2c-17.5-55.3-41-92.2-70.6-110.6
		c-29.6-18.4-67.2-27.6-112.8-27.6c-34.9,0-65.7,4.4-92.4,13.1s-50.7,19.4-72,32l-16-29.1c13.6-43.6,35.7-79,66.2-106.2
		S614.8,132.1,659.4,132.1 M659.4,116.1c-48.5,0-90,15.1-123.4,44.8c-32.6,29-56.5,67.1-70.9,113.4c-1.3,4.2-0.8,8.6,1.2,12.5
		l16,29.1c4.3,7.7,14,10.6,21.7,6.3c0.1-0.1,0.3-0.2,0.4-0.3c20.2-12,43.4-22.2,68.9-30.6c24.9-8.2,54.3-12.3,87.4-12.3
		c42.3,0,77.4,8.5,104.3,25.2c26.1,16.3,47.6,50.5,63.8,101.8c0,0.2,0.1,0.3,0.1,0.4l31.2,89.8l-401.4,801.5
		c-2.5,5-2.2,10.9,0.7,15.6l7.3,11.7c2.7,4.4,7.4,7.1,12.5,7.5l170.3,11.6c0.4,0,0.7,0,1.1,0c6.5,0,12.4-4,14.8-10l257.9-642.8
		l95.8,413.2c13.8,65.1,30,115.9,48,150.8c18.9,36.8,39.3,62,62.3,76.7s47.4,22.2,72.7,22.2c35.1,0,66.8-12.9,94.5-38.4
		c26.9-24.8,45.8-57.5,56.3-97.2c1-3.8,0.6-7.8-1.2-11.2l-13.1-26.2c-3.9-7.7-13.1-11-20.9-7.4c-10.6,4.6-21.8,7.9-33.2,9.7
		c-13.1,2.2-24.2,3.4-32.9,3.4c-18.7,0-35-4.3-50.1-13.1s-30-24.8-44-47.7c-14.8-24.1-30-59.2-45-104.4L885.6,341
		c-12.8-39-26.9-73-41.8-101c-15.2-28.7-31.8-52.1-49.4-69.7C758.5,134.4,713.1,116.1,659.4,116.1L659.4,116.1z"/>
</g>
</svg>
