<svg id="Application" xmlns="http://www.w3.org/2000/svg" xmlns:xlink="http://www.w3.org/1999/xlink" viewBox="0 0 1643.73 1771.86">
  <defs>
    <style>
      .cls-1 {
        fill: #6e6e6e;
      }

      .cls-2 {
        fill: url(#Безымянный_градиент_119);
      }

      .cls-3 {
        fill: url(#Безымянный_градиент_272);
      }

      .cls-4 {
        fill: url(#Безымянный_градиент_272-2);
      }

      .cls-5 {
        fill: #f7d000;
      }

      .cls-6 {
        fill: url(#Безымянный_градиент_374);
      }

      .cls-7 {
        fill: #f6f6f6;
      }
    </style>
    <linearGradient id="Безымянный_градиент_119" data-name="Безымянный градиент 119" x1="99.42" y1="914.43" x2="1743.1" y2="914.43" gradientUnits="userSpaceOnUse">
      <stop offset="0" stop-color="#d4a51e"/>
      <stop offset="1" stop-color="#7a6839"/>
    </linearGradient>
    <linearGradient id="Безымянный_градиент_272" data-name="Безымянный градиент 272" x1="1277.5" y1="1364.52" x2="1772.86" y2="1364.52" gradientTransform="matrix(1.04, -0.63, 0.52, 0.85, -838.29, 1215.41)" gradientUnits="userSpaceOnUse">
      <stop offset="0.1" stop-color="#181716" stop-opacity="0"/>
      <stop offset="0.5" stop-color="#181716" stop-opacity="0.3"/>
      <stop offset="0.85" stop-color="#181716" stop-opacity="0"/>
    </linearGradient>
    <linearGradient id="Безымянный_градиент_272-2" x1="635.59" y1="889.42" x2="1130.95" y2="889.42" gradientTransform="matrix(-1.04, -0.63, -0.52, 0.85, 1768.54, 1215.41)" xlink:href="#Безымянный_градиент_272"/>
    <linearGradient id="Безымянный_градиент_374" data-name="Безымянный градиент 374" x1="101.44" y1="720.4" x2="1542.24" y2="720.4" gradientUnits="userSpaceOnUse">
      <stop offset="0" stop-color="gold"/>
      <stop offset="1" stop-color="#a88600"/>
    </linearGradient>
  </defs>
  <path class="cls-1" d="M1743.1,452.13v1055c0,165.74-134.35,300.09-300.09,300.09H399.51c-165.73,0-300.09-134.35-300.09-300.09v-1055c0-165.74,247.12-423.57,404.44-382.42h834.8C1496,28.56,1743.1,286.39,1743.1,452.13Z" transform="translate(-99.42 -35.33)"/>
  <path class="cls-2" d="M1743.1,430.3v1055c0,165.74-134.35,300.1-300.09,300.1H399.51c-165.73,0-300.09-134.36-300.09-300.1V430.3c0-165.73,247.12-423.57,404.44-382.42h834.8C1496,6.73,1743.1,264.57,1743.1,430.3Z" transform="translate(-99.42 -35.33)"/>
  <path class="cls-3" d="M1743.05,1490.86c.1,4.29.17,10.75,0,18.58,0,0-.23,8.27-1.21,20.22,0,0-1.93,23.07-5.72,42.28-3.41,17.29-15,61.61-47.59,107.81a302.32,302.32,0,0,1-47.3,52.69c-10.42,9.8-85.86,78.33-197.43,65.49-110.59-12.72-168.37-95.2-176.48-107.22q-82.17-248.87-164.35-497.73L1576,1042.71Q1659.54,1266.79,1743.05,1490.86Z" transform="translate(-99.42 -35.33)"/>
  <path class="cls-4" d="M99.51,1490.86c-.09,4.29-.16,10.75,0,18.58,0,0,.22,8.27,1.2,20.22,0,0,1.94,23.07,5.73,42.28,3.41,17.29,15.05,61.61,47.59,107.81a302.2,302.2,0,0,0,47.29,52.69c10.43,9.8,85.87,78.33,197.44,65.49,110.58-12.72,168.37-95.2,176.48-107.22Q657.46,1441.84,739.64,1193L266.55,1042.71Z" transform="translate(-99.42 -35.33)"/>
  <path class="cls-5" d="M1653.89,346v847.36c0,167.06-136.64,302.49-305.19,302.49H493.82c-168.55,0-305.18-135.43-305.18-302.49V346c0-167.06,136.63-302.49,305.18-302.49H1348.7C1517.25,43.5,1653.89,178.93,1653.89,346Z" transform="translate(-99.42 -35.33)"/>
  <rect class="cls-6" x="101.44" width="1440.8" height="1440.8" rx="300.09"/>
  <g>
    <path class="cls-7" d="M1237.58,1381.87c-23.75,0-46.75-7-68.36-20.89s-41.52-38.59-59.54-73.67c-17.69-34.36-33.6-84.46-47.27-148.91L960.82,700.31,693.46,1366.66a8,8,0,0,1-7.42,5h-.55L515.23,1360a8,8,0,0,1-6.24-3.75l-7.28-11.65a8,8,0,0,1-.37-7.82l403-804.51-32.27-93a1.87,1.87,0,0,0-.07-.22c-16.79-53.16-39.39-88.91-67.18-106.23-28.19-17.54-64.71-26.44-108.55-26.44-33.93,0-64.19,4.28-89.91,12.72-26,8.51-49.75,19-70.48,31.3a7.94,7.94,0,0,1-4.07,1.11,8,8,0,0,1-7-4.14l-16-29.11a8,8,0,0,1-.63-6.23c14-44.89,37-81.85,68.53-109.85,31.93-28.37,71.67-42.76,118.11-42.76,51.45,0,95,17.44,129.35,51.83,33.72,33.71,63.76,90.09,89.27,167.58l227,681c15.24,45.76,30.65,81.43,45.8,106,14.74,24,30.44,40.93,46.69,50.39s34.36,14.19,54.18,14.19c9.2,0,20.74-1.18,34.3-3.51a144.85,144.85,0,0,0,35.15-10.32,8,8,0,0,1,10.47,3.7l13.11,26.2a8,8,0,0,1,.58,5.62c-10.07,38.21-28.23,69.61-54,93.35C1300.53,1369.66,1270.55,1381.87,1237.58,1381.87Z" transform="translate(-99.42 -35.33)"/>
    <path class="cls-7" d="M694.77,167.46q74.22,0,123.69,49.48t87.33,164.43l227,681.07q23.27,69.86,46.57,107.7t49.48,53.11q26.18,15.29,58.21,15.28,14.54,0,35.65-3.63t37.11-10.92l13.11,26.2q-14.58,55.32-51.67,89.5t-83.68,34.19q-33.46,0-64-19.63t-56.75-70.59q-26.22-50.93-46.57-147L962.86,673.72,686,1363.68l-170.26-11.63-7.28-11.65L913,532.87l-33.37-96.19q-26.21-83-70.58-110.61T696.23,298.42q-52.41,0-92.41,13.11t-72.05,32l-16-29.11Q536.14,249,582,208.2t112.8-40.74m0-16c-48.45,0-90,15.07-123.42,44.78-32.61,29-56.45,67.15-70.85,113.45a16,16,0,0,0,1.25,12.46l16,29.11a16,16,0,0,0,22.17,6.07c20.22-12,43.4-22.25,68.88-30.59,24.93-8.17,54.35-12.32,87.43-12.32,42.32,0,77.42,8.49,104.33,25.24,26.11,16.28,47.57,50.54,63.78,101.84,0,.15.09.29.14.43l31.15,89.81-401.44,801.5a16,16,0,0,0,.73,15.64l7.28,11.65a16,16,0,0,0,12.48,7.49l170.26,11.63c.37,0,.73,0,1.1,0a16,16,0,0,0,14.84-10L958.77,726.9l95.83,413.23c13.82,65.11,30,115.87,48,150.85,18.92,36.84,39.31,62,62.33,76.73s47.38,22.16,72.68,22.16c35.05,0,66.85-12.92,94.52-38.42,26.9-24.78,45.84-57.48,56.3-97.19a16,16,0,0,0-1.16-11.24l-13.11-26.2a16,16,0,0,0-20.94-7.4,136.35,136.35,0,0,1-33.2,9.72c-13.1,2.25-24.18,3.39-32.93,3.39-18.65,0-35-4.28-50.14-13.09S1207,1184.6,1193,1161.76c-14.83-24.09-30-59.21-45-104.37L921,376.31c-12.83-39-26.9-73-41.8-101-15.24-28.69-31.85-52.13-49.4-69.66-35.92-35.94-81.35-54.17-135-54.17Z" transform="translate(-99.42 -35.33)"/>
  </g>
</svg>
